<svg xmlns="http://www.w3.org/2000/svg" xmlns:xlink="http://www.w3.org/1999/xlink" width="232" height="217" viewBox="0 0 232 217">
  <defs>
    <clipPath id="clip-path">
      <rect id="Rectangle_5" data-name="Rectangle 5" width="232" height="217" transform="translate(112 2112)" fill="#fff"/>
    </clipPath>
  </defs>
  <g id="Mask_Group_1" data-name="Mask Group 1" transform="translate(-112 -2112)" clip-path="url(#clip-path)">
    <g id="head" transform="translate(133.868 2112)">
      <g id="Group_11" data-name="Group 11" transform="translate(0)">
        <path id="Path_16" data-name="Path 16" d="M122.938,0A85.237,85.237,0,0,0,86.917,7.919C58.1,21.044,38.163,49.651,38.163,82.885h0V96.632L20.991,128.843c-4.35,8.142-.227,14.771,9.107,14.771h8.065v30.609a17.613,17.613,0,0,0,17.716,17.4l24.331-3.559.045,23.891v.178h0c.136,3.07,2.764,5.072,6.026,4.538l87.675-15.216a7.482,7.482,0,0,0,6.026-7.029v-50.63a81.855,81.855,0,0,0,27.322-61C207.26,37.06,169.517,0,122.938,0Zm43.044,125.729a62.469,62.469,0,0,1-74.761,9.387l-.136-.089A35.481,35.481,0,0,1,64.9,142.056a2.346,2.346,0,0,1-.68-4.449c6.343-3.07,10.376-9.165,12.687-14.1l-.634-.489a59.706,59.706,0,0,1,2.583-82.84,62.419,62.419,0,0,1,87.131,0A59.727,59.727,0,0,1,165.982,125.729Z" transform="translate(-19.256)" fill="#fff"/>
        <path id="Path_17" data-name="Path 17" d="M141.934,74.535A9.944,9.944,0,1,0,131.875,64.48,10.068,10.068,0,0,0,141.934,74.535Z" transform="translate(-36.259 -9.09)" fill="#fff"/>
        <path id="Path_18" data-name="Path 18" d="M152.3,124.1c-1,.356-1.858,1.023-2.809,1.424a15.675,15.675,0,0,1-3.761,1.023,2.638,2.638,0,0,1-3.036-2.136,9.544,9.544,0,0,1-.317-3.381c.272-2.358.77-4.671,1.178-6.985,1.314-7.029,2.628-14.059,3.9-21.088a27.5,27.5,0,0,0,.634-5.739c-.045-2.313-1.45-3.381-3.806-3.381h-19.03a13.48,13.48,0,0,0-2.311.178c-1.4.267-2.13.934-2.22,2.047a2.276,2.276,0,0,0,1.767,2.447,19.735,19.735,0,0,0,3.308.623c2.583.356,3.4,1.246,3.4,3.826a10.716,10.716,0,0,1-.091,1.2c-1.087,6.14-2.22,12.324-3.262,18.463-.589,3.559-1.178,7.074-1.676,10.633-.725,5.205,4.4,10.1,8.382,10.633a50.4,50.4,0,0,0,7.34.4,18.58,18.58,0,0,0,13.276-5.873,5.5,5.5,0,0,0,1.4-2.358A1.586,1.586,0,0,0,152.3,124.1Z" transform="translate(-34.572 -13.946)" fill="#fff"/>
      </g>
    </g>
  </g>
</svg>
