<svg xmlns="http://www.w3.org/2000/svg" xmlns:xlink="http://www.w3.org/1999/xlink" width="895" height="1036" viewBox="0 0 895 1036">
  <defs>
    <clipPath id="clip-path">
      <rect id="Rectangle_20" data-name="Rectangle 20" width="895" height="1036" transform="translate(0 134)" fill="#fff"/>
    </clipPath>
    <filter id="Path_13" x="-309" y="-316" width="1216.099" height="1354.072" filterUnits="userSpaceOnUse">
      <feOffset dx="20" dy="26" input="SourceAlpha"/>
      <feGaussianBlur stdDeviation="5" result="blur"/>
      <feFlood flood-color="#a08629" flood-opacity="0.251"/>
      <feComposite operator="in" in2="blur"/>
      <feComposite in="SourceGraphic"/>
    </filter>
  </defs>
  <g id="Mask_Group_8" data-name="Mask Group 8" transform="translate(0 -134)" clip-path="url(#clip-path)">
    <g id="Group_50" data-name="Group 50">
      <g transform="matrix(1, 0, 0, 1, 0, 134)" filter="url(#Path_13)">
        <path id="Path_13-2" data-name="Path 13" d="M559.481,0C797.4,0,1095.687,210.533,1176.655,514.278c24.1,90.424-57.693,193.7-57.693,296.722,0,123.621,78.458,238.927,44.462,343.376-89.649,275.442-416.881,108.663-640.592,108.663C213.837,1263.039,0,1258.9,0,811S250.488,0,559.481,0Z" transform="translate(-309 -316)" fill="#a08629"/>
      </g>
      <path id="Path_15" data-name="Path 15" d="M15.743,193.635V640.519h586.84V193.635L309.173,13.071Zm422.29-72V355.429H180.293V121.638l128.88-79.312ZM305.985,615.18H180.293V380.768H438.053V533.921ZM39.517,208.263l117-72V615.18h-117Zm314,406.917,225.3-138.629V615.18Zm225.3-167.822-117,71.853V136.265l117,72Z" transform="translate(57.283 254.618)" fill="#fff" opacity="0.114"/>
    </g>
  </g>
</svg>
