<svg xmlns="http://www.w3.org/2000/svg" xmlns:xlink="http://www.w3.org/1999/xlink" width="141" height="141" viewBox="0 0 141 141">
  <defs>
    <clipPath id="clip-path">
      <circle id="Ellipse_11" data-name="Ellipse 11" cx="50" cy="50" r="50" transform="translate(1074 1317)" fill="#fff" stroke="#707070" stroke-width="1"/>
    </clipPath>
  </defs>
  <g id="Group_50" data-name="Group 50" transform="translate(-1099 -1296)">
    <circle id="Ellipse_10" data-name="Ellipse 10" cx="70.5" cy="70.5" r="70.5" transform="translate(1099 1296)" fill="#a08629"/>
    <g id="Mask_Group_5" data-name="Mask Group 5" transform="translate(46)" clip-path="url(#clip-path)">
      <g id="working-team" transform="translate(1074 1317)">
        <g id="Group_22" data-name="Group 22">
          <path id="Path_37" data-name="Path 37" d="M55.395,27.641a16.1,16.1,0,0,0,6.681-12.632,12.073,12.073,0,1,0-24.146,0,16.09,16.09,0,0,0,6.681,12.632c-9.458,2.4-16.468,10.608-16.468,16.693,0,7.192,43.723,7.192,43.723,0C71.861,38.249,64.854,30.041,55.395,27.641ZM50,49.727,43.875,43.6l5.157-12.461h-.053l-2-2.3a8.507,8.507,0,0,0,6.047,0l-2,2.3h-.052L56.123,43.6Z" fill="#fff"/>
          <g id="Group_21" data-name="Group 21">
            <g id="Group_20" data-name="Group 20">
              <g id="Group_17" data-name="Group 17">
                <path id="Path_38" data-name="Path 38" d="M39.36,78.05c1.283,0,2.323-1.483,2.323-2.764a2.321,2.321,0,0,0-4.643,0C37.04,76.567,38.081,78.05,39.36,78.05Z" fill="#fff"/>
                <path id="Path_39" data-name="Path 39" d="M43.9,79.667a.909.909,0,0,0-.062-.2,1.431,1.431,0,0,0-.089-.121,1.114,1.114,0,0,0-.133-.158.843.843,0,0,0-.136-.084,1.134,1.134,0,0,0-.136-.086,14.673,14.673,0,0,0-3.629-.774l-.231.464h-.006l.618,4.81L39.363,84.8l-.733-1.281.621-4.81h-.009l-.234-.464a14.708,14.708,0,0,0-3.625.774.941.941,0,0,0-.14.086.959.959,0,0,0-.133.084,1.147,1.147,0,0,0-.133.158.711.711,0,0,0-.085.116.763.763,0,0,0-.062.2.553.553,0,0,0-.042.118l-.745,6.608a.924.924,0,0,0,.809,1.016c.036,0,.068,0,.107,0a.918.918,0,0,0,.909-.814l.668-6.017.251-.075v6.262l-.728,9.078a1.1,1.1,0,0,0,1.01,1.183c.032,0,.059,0,.091,0a1.1,1.1,0,0,0,1.094-1.013l.662-8.2a1.055,1.055,0,0,0,.889,0l.662,8.2a1.1,1.1,0,0,0,1.094,1.013c.032,0,.059,0,.091,0a1.109,1.109,0,0,0,1.011-1.183l-.733-9.078V80.5c.094.026.18.052.257.075L42.86,86.6a.915.915,0,0,0,.908.814c.032,0,.071,0,.1,0a.921.921,0,0,0,.811-1.016l-.736-6.6A.553.553,0,0,0,43.9,79.667Z" fill="#fff"/>
              </g>
              <g id="Group_18" data-name="Group 18">
                <path id="Path_40" data-name="Path 40" d="M50,78.05c1.279,0,2.317-1.483,2.317-2.764a2.32,2.32,0,1,0-4.64,0C47.678,76.567,48.721,78.05,50,78.05Z" fill="#fff"/>
                <path id="Path_41" data-name="Path 41" d="M54.543,79.667a.906.906,0,0,0-.061-.2.974.974,0,0,0-.092-.121.885.885,0,0,0-.132-.158,1.123,1.123,0,0,0-.133-.084,1.138,1.138,0,0,0-.139-.086,14.665,14.665,0,0,0-3.624-.774l-.234.464H50.12l.618,4.81L50,84.809l-.736-1.284.621-4.811h-.011l-.227-.467a14.477,14.477,0,0,0-3.629.78.531.531,0,0,0-.136.087.518.518,0,0,0-.133.081.8.8,0,0,0-.136.155,1.34,1.34,0,0,0-.09.121,1.865,1.865,0,0,0-.065.2c-.006.041-.032.075-.037.118l-.736,6.605a.924.924,0,0,0,.812,1.016c.035,0,.068,0,.1,0a.917.917,0,0,0,.909-.814l.671-6.017.248-.075v6.262l-.73,9.078a1.1,1.1,0,0,0,1.015,1.183c.029,0,.059,0,.088,0A1.1,1.1,0,0,0,48.9,96.018l.662-8.2a1.071,1.071,0,0,0,.446.1,1.085,1.085,0,0,0,.445-.1l.661,8.2a1.1,1.1,0,0,0,1.094,1.013c.032,0,.058,0,.092,0a1.106,1.106,0,0,0,1.01-1.183l-.73-9.078V80.5l.251.075L53.5,86.6a.918.918,0,0,0,.909.814c.031,0,.066,0,.107,0a.92.92,0,0,0,.805-1.016l-.736-6.6A.846.846,0,0,0,54.543,79.667Z" fill="#fff"/>
              </g>
              <g id="Group_19" data-name="Group 19">
                <path id="Path_42" data-name="Path 42" d="M60.641,78.05c1.281,0,2.32-1.483,2.32-2.764a2.32,2.32,0,1,0-4.641,0C58.321,76.567,59.36,78.05,60.641,78.05Z" fill="#fff"/>
                <path id="Path_43" data-name="Path 43" d="M65.183,79.667a1.066,1.066,0,0,0-.064-.2.935.935,0,0,0-.087-.121,1.494,1.494,0,0,0-.133-.158,1.051,1.051,0,0,0-.133-.084,1.361,1.361,0,0,0-.136-.086A14.784,14.784,0,0,0,61,78.246l-.231.464h-.011l.618,4.81L60.642,84.8l-.733-1.281.618-4.81H60.52l-.236-.464a14.782,14.782,0,0,0-3.625.774.944.944,0,0,0-.136.086.74.74,0,0,0-.133.084,1.05,1.05,0,0,0-.136.158,1.115,1.115,0,0,0-.087.116,1.7,1.7,0,0,0-.069.2c-.006.04-.029.078-.037.118l-.73,6.6A.923.923,0,0,0,56.14,87.4c.035,0,.069,0,.1,0a.919.919,0,0,0,.909-.814l.666-6.02c.078-.02.168-.046.26-.075V86.76l-.733,9.079a1.105,1.105,0,0,0,1.013,1.186.876.876,0,0,0,.089,0,1.1,1.1,0,0,0,1.1-1.016l.658-8.2a1.063,1.063,0,0,0,.892,0l.661,8.2a1.1,1.1,0,0,0,1.1,1.016c.029,0,.055,0,.087,0a1.116,1.116,0,0,0,1.016-1.186l-.733-9.079V80.5c.09.029.173.055.254.075l.663,6.02a.922.922,0,0,0,.912.814c.034,0,.069,0,.1,0a.919.919,0,0,0,.808-1.018l-.733-6.6C65.218,79.742,65.195,79.707,65.183,79.667Z" fill="#fff"/>
              </g>
            </g>
            <path id="Path_44" data-name="Path 44" d="M97.706,85.349a9.772,9.772,0,0,0-.652-3.861l2.008-1.25L97.094,77.09l-2.005,1.253a9.86,9.86,0,0,0-3.183-2.277l.531-2.3-3.622-.834-.528,2.3a9.628,9.628,0,0,0-3.861.649l-1.258-2.008-3.14,1.965,1.253,2.006A9.781,9.781,0,0,0,79,81.031L76.7,80.5l-.837,3.616,2.3.534a9.693,9.693,0,0,0,.655,3.861L76.808,89.76l1.968,3.146,2.008-1.255a9.662,9.662,0,0,0,3.183,2.28l-.528,2.3,3.613.834.531-2.3a9.583,9.583,0,0,0,3.861-.652L92.7,96.121l3.145-1.968-1.253-2.008a9.642,9.642,0,0,0,2.274-3.186l2.3.534L100,85.876Zm-6.24,5.3a6.664,6.664,0,1,1,2.121-9.183A6.668,6.668,0,0,1,91.466,90.65Z" fill="#fff"/>
            <path id="Path_45" data-name="Path 45" d="M12.068,72.929A12.068,12.068,0,1,0,24.137,84.993,12.081,12.081,0,0,0,12.068,72.929Zm5.169,20.48-.471-.814-.466.268.463.805a9.72,9.72,0,0,1-4.421,1.212v-.955H11.8v.955a9.7,9.7,0,0,1-4.423-1.212l.466-.805-.469-.268-.47.819a9.865,9.865,0,0,1-3.245-3.243l.819-.473L4.2,89.23l-.807.462a9.748,9.748,0,0,1-1.212-4.421h.961v-.543H2.186A9.863,9.863,0,0,1,3.4,80.3l.8.467.271-.47-.815-.473A9.866,9.866,0,0,1,6.9,76.584l.476.819.466-.271-.463-.805A9.747,9.747,0,0,1,11.8,75.115v.958h.222l-1.469,2.934h.978v5.679L8.484,86.441l-.491-.848L6.125,88.424l3.387-.2-.493-.848,3.318-1.916c.018-.011.021-.046.045-.058a.574.574,0,0,0,.124-.162.435.435,0,0,0,.073-.182c0-.026.027-.044.027-.069V79h.977L12.119,76.07h.215l0-.958a9.8,9.8,0,0,1,4.424,1.212l-.47.808.473.265.47-.817a9.852,9.852,0,0,1,3.241,3.241l-.815.476.273.467.8-.467a9.823,9.823,0,0,1,1.214,4.424h-.957v.543h.957a9.8,9.8,0,0,1-1.214,4.427l-.8-.467-.27.473.815.47A9.887,9.887,0,0,1,17.237,93.409Z" fill="#fff"/>
          </g>
          <path id="Path_46" data-name="Path 46" d="M50.8,56.647V53.718H49.2v2.929H11.27V69.411h1.6V58.243H49.2V69.411h1.6V58.243H87.138V69.411h1.593V56.647Z" fill="#fff"/>
        </g>
      </g>
    </g>
  </g>
</svg>
