<svg xmlns="http://www.w3.org/2000/svg" xmlns:xlink="http://www.w3.org/1999/xlink" width="141" height="141" viewBox="0 0 141 141">
  <defs>
    <clipPath id="clip-path">
      <circle id="Ellipse_13" data-name="Ellipse 13" cx="50" cy="50" r="50" transform="translate(181 1686)" fill="#fff" stroke="#707070" stroke-width="1"/>
    </clipPath>
  </defs>
  <g id="Group_51" data-name="Group 51" transform="translate(-160 -1665)">
    <circle id="Ellipse_12" data-name="Ellipse 12" cx="70.5" cy="70.5" r="70.5" transform="translate(160 1665)" fill="#a08629"/>
    <g id="Mask_Group_6" data-name="Mask Group 6" clip-path="url(#clip-path)">
      <g id="two-people-under-an-umbrella" transform="translate(181 1686)">
        <g id="icons_25_">
          <g id="Group_23" data-name="Group 23">
            <path id="Path_47" data-name="Path 47" d="M32.931,41.763a6.921,6.921,0,1,0-6.92-6.92A6.921,6.921,0,0,0,32.931,41.763Z" fill="#fff"/>
            <path id="Path_48" data-name="Path 48" d="M55.039,17.612c1.954.37,3.448,1.385,3.748,2.354a.994.994,0,0,0,1.9,0c.375-1.212,2.3-2.5,5.141-2.5a6.356,6.356,0,0,1,4.662,1.685.994.994,0,0,0,1.739-.634c.081-3.218-.417-9.267-4.655-13.612C64.664,1.924,60.521.28,55.241.009L52.248,0c-5.374.24-9.586,1.886-12.53,4.905C35.48,9.25,34.982,15.3,35.062,18.517a.994.994,0,0,0,1.739.634,6.356,6.356,0,0,1,4.662-1.685c2.837,0,4.767,1.288,5.141,2.5a.994.994,0,0,0,1.9,0c.309-1,1.679-2.052,3.744-2.388v17.8a1.979,1.979,0,0,0-.491,1.306v3.654s-7.24,3.333-10.489,4.333c-1.432.441-3.009,1.254-4.458.162-2.337-1.762-7.821-2.206-10.8.949A157.976,157.976,0,0,0,14.036,60.587a3.618,3.618,0,1,0,6.011,4.031c1.053-1.569,3.619-5.293,5.239-7.369.217-.278.572-.192.585.1.181,4.035.1,7.646.234,12.756a5.371,5.371,0,0,1-.671,2.909c-.647,1.488-6.117,13.866-8.541,22.112a3.8,3.8,0,1,0,7.292,2.144c2.236-7.6,7.446-19.84,7.663-20.288.2-.407.538-.269.618.008.056.195,5.187,14.074,7.342,20.491,1.564,4.676,8.822,2.248,7.253-2.43-2.353-7.017-5.588-15.266-7.934-22.282a19.353,19.353,0,0,1-.513-2.493c-.341-3.8-.56-15.238-.56-16.149A1.406,1.406,0,0,1,39.069,52.7c7.38-2.557,11.336-3.657,14.755-6.566a4.211,4.211,0,0,0,.977-1.169A5.714,5.714,0,0,0,55.531,42V36.683a1.978,1.978,0,0,0-.492-1.306V17.612Z" fill="#fff"/>
            <path id="Path_49" data-name="Path 49" d="M74.5,45.3a20.195,20.195,0,0,0-5.06,0C59.754,46.416,56.612,57.636,57.5,66.18c.385,3.694,6.208,3.732,5.819,0a23.551,23.551,0,0,1,1.065-10.232c.124-.316.406-.371.406.016,0,6.3-.039,31.726-.414,40.822-.177,4.293,6.478,4.275,6.654,0,.312-7.567.409-22.035.409-22.711a.529.529,0,0,1,1.057,0c0,.676.1,15.144.409,22.711.176,4.275,6.831,4.293,6.654,0-.376-9.1-.411-34.517-.414-40.822,0-.387.282-.332.406-.016A23.55,23.55,0,0,1,80.615,66.18c-.389,3.732,5.434,3.694,5.819,0C87.322,57.636,84.18,46.416,74.5,45.3Z" fill="#fff"/>
            <path id="Path_50" data-name="Path 50" d="M71.967,30.415l-.105,0a6.44,6.44,0,1,0,0,12.88l.105,0,.1,0a6.44,6.44,0,1,0,0-12.88Z" fill="#fff"/>
          </g>
        </g>
      </g>
    </g>
  </g>
</svg>
