<svg id="lederhusetlogo" xmlns="http://www.w3.org/2000/svg" xmlns:xlink="http://www.w3.org/1999/xlink" width="255.449" height="53.332" viewBox="0 0 255.449 53.332">
  <defs>
    <clipPath id="clip-path">
      <rect id="Rectangle_3" data-name="Rectangle 3" width="255.449" height="53.332" fill="#a08629"/>
    </clipPath>
  </defs>
  <path id="Path_1" data-name="Path 1" d="M15.743,18.905v14.44H35.954V18.905L25.849,13.071Zm14.544-2.326v7.554H21.41V16.579l4.439-2.563ZM25.739,32.527H21.41V24.952h8.877V29.9ZM16.562,19.378l4.03-2.326V32.527h-4.03ZM27.376,32.527l7.759-4.479v4.479ZM35.135,27.1l-4.03,2.322V17.052l4.03,2.326Z" transform="translate(1.011 2.283)" fill="#a08629"/>
  <g id="Group_3" data-name="Group 3" clip-path="url(#clip-path)">
    <path id="Path_2" data-name="Path 2" d="M26.667,0A26.666,26.666,0,1,0,53.333,26.666,26.665,26.665,0,0,0,26.667,0m0,52.129A25.466,25.466,0,1,1,52.133,26.663,25.466,25.466,0,0,1,26.667,52.129" transform="translate(0)" fill="#a08629"/>
    <path id="Path_3" data-name="Path 3" d="M109.513,44.225c-2.36-.078-3.364-.078-7.343-.078H93.242c-3.285,0-4.4,0-5.874.078V43.1a4.621,4.621,0,0,0,2.434-.426A2.028,2.028,0,0,0,91,40.9a20.713,20.713,0,0,0,.039-2.279V23.9c0-2.435,0-2.551-.27-3.131-.426-.927-1.238-1.278-3.4-1.353V18.293c2.7.116,4.1.154,5.989.154,1.933,0,3.324-.039,6.106-.154v1.121a5.082,5.082,0,0,0-2.435.425,2.03,2.03,0,0,0-1.2,1.777,21.266,21.266,0,0,0-.039,2.319V37.577c0,2.783.232,3.827,1.082,4.523.773.618,2.086.885,4.6.885,2.783,0,4.444-.465,5.681-1.624.774-.7,1.121-1.546,1.662-3.787h1Z" transform="translate(-21.746 -4.553)" fill="#a08629"/>
    <path id="Path_4" data-name="Path 4" d="M135.914,43.912c-1.354,2.36-3.827,3.595-7.073,3.595-5.408,0-9.159-3.479-9.159-8.5A9.133,9.133,0,0,1,129,29.768c4.1,0,7.265,2.822,7.265,6.455,0,.734,0,.734-1.816.734H124.4c-.039.618-.039,1.082-.039,1.431,0,4.406,2.36,7.381,5.836,7.381,1.894,0,3.245-.773,4.638-2.628Zm-5.408-8.232c1.468-.078,1.468-.078,1.468-.885,0-2.4-1.314-3.98-3.323-3.98-2.2,0-3.594,1.662-4.1,4.869Z" transform="translate(-29.79 -7.409)" fill="#a08629"/>
    <path id="Path_5" data-name="Path 5" d="M162.895,36.652c0,4.638.386,5.45,2.551,5.45a4.068,4.068,0,0,0,.58-.039v1a30.748,30.748,0,0,1-3.17.657c-1.2.232-1.506.309-3.015.618-.348-1.315-.386-1.508-.657-2.783a6.847,6.847,0,0,1-5.759,2.783A8.259,8.259,0,0,1,145,35.725c0-5.179,3.671-9.121,8.54-9.121a7.473,7.473,0,0,1,5.217,2.009V22.546c0-2.28-.078-2.551-.657-3.015a2.869,2.869,0,0,0-1.933-.425h-.385V18.063a29.553,29.553,0,0,0,6.883-1h.232Zm-4.02,0c-.039-.966-.039-1.662-.039-1.816,0-3.323-.154-4.252-.885-5.217a4.306,4.306,0,0,0-3.441-1.663c-3.015,0-4.792,2.86-4.792,7.691,0,4.56,1.778,7.306,4.754,7.306a4.486,4.486,0,0,0,3.555-1.739c.618-.851.851-1.817.851-3.711Z" transform="translate(-36.091 -4.246)" fill="#a08629"/>
    <path id="Path_6" data-name="Path 6" d="M190.866,43.912c-1.352,2.36-3.826,3.595-7.072,3.595-5.408,0-9.16-3.479-9.16-8.5a9.133,9.133,0,0,1,9.313-9.237c4.1,0,7.266,2.822,7.266,6.455,0,.734,0,.734-1.816.734H179.351c-.039.618-.039,1.082-.039,1.431,0,4.406,2.36,7.381,5.836,7.381,1.895,0,3.245-.773,4.638-2.628Zm-5.408-8.232c1.469-.078,1.469-.078,1.469-.885,0-2.4-1.315-3.98-3.324-3.98-2.2,0-3.594,1.662-4.1,4.869Z" transform="translate(-43.467 -7.409)" fill="#a08629"/>
    <path id="Path_7" data-name="Path 7" d="M205.518,29.407a17.078,17.078,0,0,1,.5,3.9c1.43-2.318,3.169-3.4,5.371-3.4,1.894,0,3.169.967,3.169,2.4a1.77,1.77,0,0,1-1.816,1.816,1.887,1.887,0,0,1-1.7-1.2c-.463-.885-.657-1.044-1.352-1.044a3.306,3.306,0,0,0-2.782,1.966,9.324,9.324,0,0,0-.618,4.174v4.4c0,2.513.038,2.668.811,3.093a4.98,4.98,0,0,0,2.163.425v1.044c-1.778-.116-2.783-.154-4.948-.154-2.2,0-3.245.038-5.139.154V45.948a4.457,4.457,0,0,0,2.36-.541c.58-.386.618-.618.618-2.976V35.088c0-1.778-.2-2.512-.811-2.9-.386-.27-.7-.348-2.163-.386V30.76a22.479,22.479,0,0,0,6.068-1.353Z" transform="translate(-49.576 -7.319)" fill="#a08629"/>
    <path id="Path_8" data-name="Path 8" d="M226.979,29.773a6.721,6.721,0,0,1,6.029-3.169,5.785,5.785,0,0,1,4.831,1.966c.7,1,.927,1.966.927,4.212v6.57c0,2.474.039,2.668.811,3.092a4.969,4.969,0,0,0,2.163.425v1.044C240,43.8,239,43.76,236.948,43.76c-2.2,0-3.285.039-5.295.154v-1.04a4.449,4.449,0,0,0,2.36-.54c.58-.386.618-.618.618-2.976V33.173c0-3.4-.927-4.792-3.169-4.792a4.425,4.425,0,0,0-3.208,1.43c-.927,1.044-1.278,2.319-1.278,4.72v4.831c0,2.512.039,2.668.812,3.092a4.969,4.969,0,0,0,2.163.425v1.044c-1.816-.116-2.822-.154-5.024-.154s-3.207.039-5.063.154V42.874a4.454,4.454,0,0,0,2.36-.54c.579-.386.618-.618.618-2.976V22.546c0-2.28-.077-2.551-.657-3.015a2.867,2.867,0,0,0-1.932-.425h-.386V18.064a28.7,28.7,0,0,0,6.841-1h.269Z" transform="translate(-54.725 -4.246)" fill="#a08629"/>
    <path id="Path_9" data-name="Path 9" d="M271.095,45.985c-2.241.425-2.4.463-6.415,1.468a30.816,30.816,0,0,1-.7-3.479,7.178,7.178,0,0,1-6.57,3.672,5.022,5.022,0,0,1-4.251-1.817c-.657-.966-.885-2.126-.885-4.444V34.9c0-2.512-.038-2.667-.812-3.091a5.1,5.1,0,0,0-2.163-.426V30.333c1.391.116,2.087.154,3.285.154,1.082,0,2.009-.039,3.826-.154V41.039a8.673,8.673,0,0,0,.542,3.4,2.629,2.629,0,0,0,2.318,1.237,4.832,4.832,0,0,0,4.058-2.551c.5-1.043.657-2.2.657-5.024V34.893c0-2.512-.039-2.667-.811-3.091a5.112,5.112,0,0,0-2.163-.426V30.333c1.391.116,2.088.154,3.245.154,1.043,0,1.967-.039,3.864-.154V41.579c0,2.938.309,3.479,1.932,3.479a3.78,3.78,0,0,0,.849-.078Z" transform="translate(-62.051 -7.55)" fill="#a08629"/>
    <path id="Path_10" data-name="Path 10" d="M281.117,41.309h1c1.044,3.672,2.36,5.024,4.831,5.024,1.7,0,2.9-1,2.9-2.474,0-1.236-.58-1.894-2.86-3.245L284.9,39.379c-2.435-1.431-3.323-2.706-3.323-4.831a4.683,4.683,0,0,1,4.792-4.831,7.585,7.585,0,0,1,3.942,1.121l1.044-.967h.618V35.01h-1.044a7.4,7.4,0,0,0-1.042-2.551,3.7,3.7,0,0,0-3.015-1.584,1.944,1.944,0,0,0-2.163,1.855c0,1,.618,1.662,2.36,2.667l2.512,1.353c2.7,1.507,3.749,3.015,3.749,5.295,0,3.208-2.435,5.449-5.8,5.449a6.739,6.739,0,0,1-4.564-1.472l-.851.966h-1Z" transform="translate(-69.971 -7.396)" fill="#a08629"/>
    <path id="Path_11" data-name="Path 11" d="M316.917,43.912c-1.353,2.36-3.826,3.595-7.072,3.595-5.408,0-9.159-3.479-9.159-8.5A9.133,9.133,0,0,1,310,29.768c4.1,0,7.265,2.822,7.265,6.455,0,.734,0,.734-1.816.734H305.4c-.038.618-.038,1.082-.038,1.431,0,4.406,2.36,7.381,5.836,7.381,1.894,0,3.245-.773,4.638-2.628ZM311.51,35.68c1.468-.078,1.468-.078,1.468-.885,0-2.4-1.313-3.98-3.322-3.98-2.2,0-3.594,1.662-4.1,4.869Z" transform="translate(-74.842 -7.409)" fill="#a08629"/>
    <path id="Path_12" data-name="Path 12" d="M336.31,43.534a4.83,4.83,0,0,1-4.754,2.59,4.644,4.644,0,0,1-3.671-1.278c-.772-.966-.885-1.507-.885-4.29V30.162h-2.126v-.885a8.962,8.962,0,0,0,5.1-5.063h1.159v4.677h4.326V30.17h-4.326v8.812a25.05,25.05,0,0,0,.155,3.942,1.77,1.77,0,0,0,1.7,1.585c.812,0,1.43-.425,2.474-1.7Z" transform="translate(-80.862 -6.026)" fill="#a08629"/>
  </g>
</svg>
