<svg xmlns="http://www.w3.org/2000/svg" xmlns:xlink="http://www.w3.org/1999/xlink" width="141" height="141" viewBox="0 0 141 141">
  <defs>
    <clipPath id="clip-path">
      <circle id="Ellipse_9" data-name="Ellipse 9" cx="50" cy="50" r="50" transform="translate(236 1280)" fill="#fff" stroke="#707070" stroke-width="1"/>
    </clipPath>
  </defs>
  <g id="Group_79" data-name="Group 79" transform="translate(-215 -1259)">
    <circle id="Ellipse_7" data-name="Ellipse 7" cx="70.5" cy="70.5" r="70.5" transform="translate(215 1259)" fill="#a08629"/>
    <g id="Mask_Group_4" data-name="Mask Group 4" clip-path="url(#clip-path)">
      <g id="leadership" transform="translate(235.999 1280)">
        <g id="Group_16" data-name="Group 16">
          <path id="Path_31" data-name="Path 31" d="M17.073,29.389c3.958,0,7.178-4.6,7.178-8.558a7.18,7.18,0,1,0-14.36,0C9.891,24.79,13.105,29.389,17.073,29.389Z" fill="#fff"/>
          <path id="Path_32" data-name="Path 32" d="M31.127,34.391a2.692,2.692,0,0,0-.192-.6,2.789,2.789,0,0,0-.279-.38,3.033,3.033,0,0,0-.408-.476,3.117,3.117,0,0,0-.424-.258,2.8,2.8,0,0,0-.432-.263A45.047,45.047,0,0,0,18.169,30l-.721,1.442h-.017l1.91,14.894L17.074,50.3,14.8,46.336l1.91-14.894h-.02L15.969,30A45.314,45.314,0,0,0,4.748,32.41a2.742,2.742,0,0,0-.434.266,2.715,2.715,0,0,0-.418.251,2.824,2.824,0,0,0-.418.487,3.614,3.614,0,0,0-.269.365,2.724,2.724,0,0,0-.2.615,3.088,3.088,0,0,0-.121.369L.616,55.2a2.845,2.845,0,0,0,2.513,3.139,3.139,3.139,0,0,0,.316.017,2.838,2.838,0,0,0,2.816-2.523L8.333,37.215c.24-.072.506-.148.788-.227V56.366l-2.257,28.1a3.4,3.4,0,0,0,3.12,3.668c.094.007.185.007.279.007a3.41,3.41,0,0,0,3.392-3.133l2.041-25.4a3.374,3.374,0,0,0,2.749,0l2.041,25.4a3.41,3.41,0,0,0,3.392,3.133c.094,0,.182,0,.279-.007a3.407,3.407,0,0,0,3.123-3.668l-2.26-28.1V36.988c.283.08.546.155.785.227l2.072,18.622a2.838,2.838,0,0,0,2.816,2.523c.108,0,.212-.007.32-.017A2.842,2.842,0,0,0,33.52,55.2L31.249,34.764A2.121,2.121,0,0,0,31.127,34.391Z" fill="#fff"/>
          <path id="Path_33" data-name="Path 33" d="M64.611,21.512a1.216,1.216,0,0,0-.095-.342l-.06-.184a2.635,2.635,0,0,0-.209-.616,2.569,2.569,0,0,0-.239-.342l-.111-.145a2.752,2.752,0,0,0-.438-.5,2,2,0,0,0-.36-.231l-.121-.069c-.044-.025-.084-.053-.122-.08a1.508,1.508,0,0,0-.377-.214,46.13,46.13,0,0,0-10.938-2.4c3.52-.972,6.076-5.132,6.076-8.779a7.611,7.611,0,1,0-15.223,0c0,3.646,2.557,7.807,6.077,8.779a46.271,46.271,0,0,0-10.935,2.4,1.644,1.644,0,0,0-.387.217.952.952,0,0,1-.121.08l-.111.062a2.175,2.175,0,0,0-.361.227,3.112,3.112,0,0,0-.488.563l-.074.092a1.862,1.862,0,0,0-.226.332,2.8,2.8,0,0,0-.216.616l.394.2-.451-.011a1.191,1.191,0,0,0-.094.334L33.132,41.942a3.271,3.271,0,0,0,2.89,3.611,3.3,3.3,0,0,0,3.611-2.887l1.994-17.978V43.111l-2.257,28.1a3.843,3.843,0,0,0,3.52,4.137,3.863,3.863,0,0,0,4.13-3.52l2-24.84a3.805,3.805,0,0,0,1.98,0l2,24.84a3.855,3.855,0,0,0,3.816,3.534c.1,0,.206-.007.313-.013a3.843,3.843,0,0,0,3.52-4.137L58.39,43.147V24.685l2,17.978a3.269,3.269,0,0,0,6.5-.724ZM43.257,7.619a6.749,6.749,0,1,1,13.5,0c0,3.682-3.011,8.127-6.747,8.127S43.257,11.3,43.257,7.619Zm6.862,10.187h-.225l-.651-1.3a5.847,5.847,0,0,0,.768.106,5.833,5.833,0,0,0,.761-.106ZM51.83,33.039l-1.822,3.19-1.826-3.19,1.826-14.212ZM63.9,44.708a2.418,2.418,0,0,1-2.658-2.127l-2.068-18.62-.034-.287-1.617-.466V43.19l2.26,28.1a2.977,2.977,0,0,1-2.726,3.2,3.014,3.014,0,0,1-3.21-2.728l-2.088-26-.556.244a2.949,2.949,0,0,1-2.405,0l-.555-.244-2.088,26a3,3,0,0,1-2.964,2.742c-.081,0-.162-.007-.239-.013a2.977,2.977,0,0,1-2.729-3.2l2.26-28.136V23.2l-1.617.466-2.1,18.907A2.418,2.418,0,0,1,36.109,44.7a2.413,2.413,0,0,1-2.129-2.663L36.25,21.6a.556.556,0,0,1,.037-.108,2.129,2.129,0,0,0,.094-.3,1.743,1.743,0,0,1,.142-.431,1.306,1.306,0,0,1,.134-.19l.142-.182a2.1,2.1,0,0,1,.306-.356,1.217,1.217,0,0,1,.212-.131l.141-.076a1.888,1.888,0,0,0,.189-.125,1.041,1.041,0,0,1,.179-.11,45.548,45.548,0,0,1,10.816-2.37l.555,1.106-1.91,14.874,2.718,4.757,2.718-4.747L50.812,18.34l.553-1.1a45.424,45.424,0,0,1,10.816,2.37,1.127,1.127,0,0,1,.179.106c.06.045.124.087.185.124l.145.079a1.122,1.122,0,0,1,.212.131,2.3,2.3,0,0,1,.347.411l.094.116a2.11,2.11,0,0,1,.145.2,3.064,3.064,0,0,1,.162.514,1.4,1.4,0,0,0,.071.21.6.6,0,0,1,.037.111l2.274,20.441A2.415,2.415,0,0,1,63.9,44.708Z" fill="#fff"/>
          <path id="Path_34" data-name="Path 34" d="M82.943,29.389c3.958,0,7.179-4.6,7.179-8.558a7.18,7.18,0,1,0-14.36,0C75.761,24.79,78.975,29.389,82.943,29.389Z" fill="#fff"/>
          <path id="Path_35" data-name="Path 35" d="M97.122,34.767A2.687,2.687,0,0,0,97,34.391a2.923,2.923,0,0,0-.2-.6,2.79,2.79,0,0,0-.279-.38,2.872,2.872,0,0,0-.4-.476,3.118,3.118,0,0,0-.424-.258,2.817,2.817,0,0,0-.431-.263A45.1,45.1,0,0,0,84.042,30l-.727,1.442H83.3l1.914,14.894L82.937,50.3l-2.27-3.967,1.91-14.894h-.02L81.836,30a45.314,45.314,0,0,0-11.221,2.41,2.717,2.717,0,0,0-.434.266,2.682,2.682,0,0,0-.414.251,3.027,3.027,0,0,0-.422.487,3.582,3.582,0,0,0-.266.365,2.9,2.9,0,0,0-.2.615c-.03.131-.1.238-.122.369L66.489,55.2A2.845,2.845,0,0,0,69,58.343c.108.011.209.017.316.017a2.837,2.837,0,0,0,2.816-2.523L74.2,37.215q.363-.109.788-.227V56.366l-2.26,28.1a3.407,3.407,0,0,0,3.126,3.668c.091.007.182.007.273.007a3.407,3.407,0,0,0,3.392-3.133l2.041-25.4a3.373,3.373,0,0,0,2.748,0l2.045,25.4a3.407,3.407,0,0,0,3.389,3.133c.095,0,.189,0,.28-.007a3.407,3.407,0,0,0,3.123-3.668l-2.26-28.1V36.988c.283.08.545.155.792.227l2.068,18.622a2.84,2.84,0,0,0,2.816,2.523c.1,0,.209-.007.316-.017a2.84,2.84,0,0,0,2.51-3.139Z" fill="#fff"/>
          <path id="Path_36" data-name="Path 36" d="M37.376,80.94V90.3l9.061,9.7L63.732,81.864V72.586L46.485,90.678Z" fill="#fff"/>
        </g>
      </g>
    </g>
  </g>
</svg>
